# xmcd
#
# Track frame offsets: 
#        150
#        17944
#        48983
#        78141
#        97519
#        122214
#        136802
#        169508
#        187111
#        206126
#        225864
#        263893
#        289460
#        307414
#
# Disc length: 4312 seconds
#
# Revision: 0
# Processed by: cddbd v1.5.2PL0 Copyright (c) Steve Scherf et al.
# Submitted via: ExactAudioCopy v1.0b1
#
DISCID=bf10d60e
DTITLE=Mietek Blues Band - 30 Years Have Passed - The Members' Meeting
DYEAR=1900
DGENRE=Blues
TTITLE0=Born In Chicago
TTITLE1=Sweet Little Angel
TTITLE2=Look On Yonder Wall
TTITLE3=I'm Ready
TTITLE4=Hoochie Coochie Man
TTITLE5=Key To The Highway
TTITLE6=Let's The Good Time Roll
TTITLE7=Every Day I Have Blues
TTITLE8=Hard Times
TTITLE9=Blues dla Zygi
TTITLE10=Sweet Home Chicago
TTITLE11=Poranne lzy
TTITLE12=ZwyklesSlowa
TTITLE13=Nigdy za pozno
EXTD=
EXTT0=
EXTT1=
EXTT2=
EXTT3=
EXTT4=
EXTT5=
EXTT6=
EXTT7=
EXTT8=
EXTT9=
EXTT10=
EXTT11=
EXTT12=
EXTT13=
PLAYORDER=
